<svg id="f931b1bc-d1bb-4f2a-bc1e-1752f73d588e" data-name="Layer 1" xmlns="http://www.w3.org/2000/svg" viewBox="0 0 495.47 138.58">
  <defs>
    <style>
      .edb2025d-e6f0-4d2b-9839-00dd9dc7a1cd {
        fill: #211915;
      }

      .f31c6d99-4ed6-4d58-8823-ffaa1b7faa4d {
        fill: #fff;
      }

      .a6124395-4783-4063-8396-c27d28b88c7a {
        fill: #5b5b5f;
      }

      .be244f71-b781-4cf6-851b-c93647b11ad5 {
        fill: #c2c3c9;
      }
    </style>
  </defs>
  <title>Artboard 1 copy cópia</title>
  <g>
    <path class="edb2025d-e6f0-4d2b-9839-00dd9dc7a1cd" d="M219.79,50.65c14.45,0,21.43,6,21.43,16A13.3,13.3,0,0,1,232,79c6.68,1.77,12.49,7.86,12.49,15.47,0,9.8-7.08,17.23-23.4,17.23-8,0-14.36-.18-21.73-.27l-.59-.62V51.53l.59-.62C206.52,50.82,213.3,50.65,219.79,50.65ZM209.07,76H219.4c9.24,0,11.3-5,11.3-9.1,0-4.33-1.87-9.1-11.11-9.1-2.75,0-7.37,0-10.52-.09Zm0,7.24v21.39c4.13,0,8.26-.09,11.9-.09,10.62,0,12.78-6.1,12.78-10.61s-2.85-10.69-13.37-10.69Z"/>
    <path class="edb2025d-e6f0-4d2b-9839-00dd9dc7a1cd" d="M283.77,84.84c3.25,1.06,5.61,4.07,7,7.51l4.33,10.34c1,2.39,2.16,4.77,4.42,6.36-1.37,1.86-4.42,2.92-7.07,2.92-3.94,0-5.31-2-6.89-5.74L280.63,94.3c-1.67-4.07-3.84-7.25-9.93-7.25h-8.06v24.3a33.12,33.12,0,0,1-5.21.36,31.82,31.82,0,0,1-5.12-.36V51.53l.59-.62c7.38-.09,14.46-.26,21.14-.26,13.67,0,22.32,6.36,22.32,18.11C296.36,76.89,291,82.81,283.77,84.84Zm-21.13-5.3c3.83-.09,8.15-.18,10.91-.18,9.63,0,12-5.47,12-10.6,0-5.39-2.36-10.69-12-10.69-2.85,0-7.57,0-10.91-.09Z"/>
    <path class="edb2025d-e6f0-4d2b-9839-00dd9dc7a1cd" d="M320,96.68l-5.21,14.76a23.5,23.5,0,0,1-4.52.35,21.84,21.84,0,0,1-5.12-.61l-.29-.45L327.12,51a45.32,45.32,0,0,1,6-.35A42.79,42.79,0,0,1,339,51l22,59.73a12.7,12.7,0,0,1-6.1,1.24c-3.24,0-4.91-1.06-6.19-5l-3.64-10.34c-1.67,0-5.11.09-5.9.09H325.74C325,96.77,321.71,96.68,320,96.68Zm2.65-7.59c1.58,0,4.23-.09,5-.09h9.83c.69,0,3.34.09,4.92.09l-4.53-12.82c-1.77-5.12-3.83-11.31-5.21-16h-.49c-1,4-2.75,9.54-3.83,12.81Z"/>
    <path class="edb2025d-e6f0-4d2b-9839-00dd9dc7a1cd" d="M370.37,98.63c5.7,3.35,13,6,19.76,6,8,0,12.48-3.45,12.58-8.31,0-4.15-3.24-7.33-8.94-9.54l-11.61-4.51C373.91,79.1,368.7,74.51,368.7,67c0-9.63,9-17.14,22.22-17.14a52.45,52.45,0,0,1,20.84,4.6,10.6,10.6,0,0,1-3.84,7.33c-5.11-2.3-11.79-4.15-16.81-4.15-7.27,0-11.8,3.62-11.8,8.31,0,3.88,3.35,6.09,8.16,8l11.41,4.41c8.45,3.18,14.75,8.57,14.75,16.44,0,10.16-7.87,17.76-24.09,17.76a46.14,46.14,0,0,1-23.6-6.63A11.35,11.35,0,0,1,370.37,98.63Z"/>
    <g>
      <path class="edb2025d-e6f0-4d2b-9839-00dd9dc7a1cd" d="M425.84,51a34.29,34.29,0,0,1,5.21-.35,35.22,35.22,0,0,1,5.22.35v60.35a33.93,33.93,0,0,1-5.22.36,33,33,0,0,1-5.21-.36Z"/>
      <path class="edb2025d-e6f0-4d2b-9839-00dd9dc7a1cd" d="M492.12,103.22a24.88,24.88,0,0,1-.3,3.71c-.58,3-3,4.51-6.78,4.51H459.38c-3.54,0-6.1-2-6.1-5.83V51.18l.69-.53h3.93c4.33,0,5.91,1.85,5.91,6v46.92c3-.27,6.09-.36,8.74-.36Z"/>
      <g>
        <path class="edb2025d-e6f0-4d2b-9839-00dd9dc7a1cd" d="M208.81,30.72h-4.1v10.1a17.2,17.2,0,0,1-3,.23,17.58,17.58,0,0,1-3-.23V10.64l.31-.27c3.56-.09,6.55-.18,9.75-.18,6.14,0,10.55,3.34,10.55,10.29C219.36,27.2,215,30.72,208.81,30.72Zm-4.1-4.54c1.47-.05,3.08-.09,3.75-.09,4,0,4.76-3.25,4.76-5.61s-.8-5.61-4.76-5.61c-1.12,0-2.41,0-3.75,0Z"/>
        <path class="edb2025d-e6f0-4d2b-9839-00dd9dc7a1cd" d="M226.49,33.92l-2.1,6.95a11.44,11.44,0,0,1-2.58.22,9.3,9.3,0,0,1-2.85-.4l-.22-.31,9.93-30a30.49,30.49,0,0,1,3.47-.22,21.93,21.93,0,0,1,3.43.27l9.75,30a7.6,7.6,0,0,1-3.43.76c-1.91,0-2.85-.67-3.56-3.2l-1.25-4.06c-.66,0-1.73,0-2.18,0h-6.23C228.22,34,227.2,34,226.49,33.92ZM228,29.2c.62,0,1.56,0,2,0h3.83c.4,0,1.25,0,1.87,0l-1.34-4.54c-.75-2.54-1.73-6-2.4-8.64h-.27c-.44,2.27-1.38,5.48-2,7.53Z"/>
        <path class="edb2025d-e6f0-4d2b-9839-00dd9dc7a1cd" d="M251.51,18.65c0-1.2,0-2,0-3.29h0l-2.67,0H243.9a12.8,12.8,0,0,1-.23-2.49,13.17,13.17,0,0,1,.23-2.5h21.28a9.36,9.36,0,0,1,.31,2.32c0,2-1,2.67-3.2,2.67h-2.1l-2.67,0h0c0,1.24,0,2.09,0,3.29V40.82a18.15,18.15,0,0,1-3,.23,18,18,0,0,1-3-.23Z"/>
        <path class="edb2025d-e6f0-4d2b-9839-00dd9dc7a1cd" d="M284.68,27.73A5.92,5.92,0,0,1,288,31.65l1.65,4.5a7.37,7.37,0,0,0,2.1,3.25,5.07,5.07,0,0,1-4,1.78c-2.18,0-2.94-1.2-3.78-3.52l-1.87-5.3c-.67-1.78-1.56-3.2-4.14-3.2h-2.72V40.82a17.66,17.66,0,0,1-3,.23,17.44,17.44,0,0,1-2.94-.23V10.64l.31-.27c3.56-.09,6.95-.18,10.15-.18,6.19,0,10.47,3.07,10.47,9.4A8.48,8.48,0,0,1,284.68,27.73Zm-9.44-3.2c1.56-.09,3.25-.14,4.1-.14,3.87,0,4.76-2.35,4.76-4.8s-.89-4.81-4.76-4.81c-1.07,0-2.72,0-4.1,0Z"/>
        <path class="edb2025d-e6f0-4d2b-9839-00dd9dc7a1cd" d="M296.52,10.41a18.41,18.41,0,0,1,3-.22,18.69,18.69,0,0,1,3,.22V40.82a17.66,17.66,0,0,1-3,.23,17.39,17.39,0,0,1-3-.23Z"/>
        <path class="edb2025d-e6f0-4d2b-9839-00dd9dc7a1cd" d="M314.69,33.92l-2.09,6.95a11.58,11.58,0,0,1-2.59.22,9.35,9.35,0,0,1-2.85-.4l-.22-.31,9.93-30a30.52,30.52,0,0,1,3.48-.22,21.9,21.9,0,0,1,3.42.27l9.75,30a7.6,7.6,0,0,1-3.43.76c-1.91,0-2.85-.67-3.56-3.2l-1.24-4.06c-.67,0-1.74,0-2.19,0h-6.23C316.43,34,315.4,34,314.69,33.92Zm1.47-4.72c.62,0,1.56,0,2,0H322c.4,0,1.25,0,1.87,0l-1.34-4.54c-.75-2.54-1.73-6-2.4-8.64h-.27c-.44,2.27-1.38,5.48-2,7.53Z"/>
        <path class="edb2025d-e6f0-4d2b-9839-00dd9dc7a1cd" d="M352.31,33.92l-2.09,6.95a11.55,11.55,0,0,1-2.58.22,9.26,9.26,0,0,1-2.85-.4l-.22-.31,9.93-30a30.2,30.2,0,0,1,3.47-.22,22.12,22.12,0,0,1,3.43.27l9.75,30a7.63,7.63,0,0,1-3.43.76c-1.91,0-2.85-.67-3.56-3.2l-1.25-4.06c-.67,0-1.74,0-2.18,0H354.5C354.05,34,353,34,352.31,33.92Zm1.47-4.72c.63,0,1.56,0,2,0h3.83c.4,0,1.24,0,1.87,0l-1.34-4.54c-.76-2.54-1.74-6-2.41-8.64h-.26c-.45,2.27-1.38,5.48-2,7.53Z"/>
        <path class="edb2025d-e6f0-4d2b-9839-00dd9dc7a1cd" d="M377,10.46a27,27,0,0,1,4-.31,23.56,23.56,0,0,1,3.79.31l3.43,12.33c.31,1.25,1.42,5.84,1.69,7.62h.31c.27-1.78,1.38-6.37,1.69-7.62l3.39-12.33a24.66,24.66,0,0,1,3.78-.31,27.53,27.53,0,0,1,4.05.31l2.36,30.28a13.21,13.21,0,0,1-3,.31,17.07,17.07,0,0,1-2.63-.18L399,26.58c-.18-2.77-.35-6.86-.35-9.66h-.31L393.1,36.28a23.26,23.26,0,0,1-3.08.22,23,23,0,0,1-3-.22l-5.21-19.36h-.31c-.05,2.8-.18,6.89-.36,9.66l-.85,14.29a17.51,17.51,0,0,1-2.67.18,13.16,13.16,0,0,1-3-.31Z"/>
        <path class="edb2025d-e6f0-4d2b-9839-00dd9dc7a1cd" d="M416.7,33.92l-2.1,6.95a11.44,11.44,0,0,1-2.58.22,9.3,9.3,0,0,1-2.85-.4l-.22-.31,9.93-30a30.49,30.49,0,0,1,3.47-.22,22,22,0,0,1,3.43.27l9.75,30a7.63,7.63,0,0,1-3.43.76c-1.91,0-2.85-.67-3.56-3.2l-1.25-4.06c-.66,0-1.73,0-2.18,0h-6.23C418.43,34,417.41,34,416.7,33.92Zm1.47-4.72c.62,0,1.55,0,2,0H424c.4,0,1.24,0,1.87,0l-1.34-4.54c-.75-2.54-1.73-6-2.4-8.64h-.27c-.44,2.27-1.38,5.48-2,7.53Z"/>
        <path class="edb2025d-e6f0-4d2b-9839-00dd9dc7a1cd" d="M458.64,38.82c-2,1.6-5.57,2.23-8,2.23-3.74,0-6.64-.09-10.51-.18l-.31-.27v-30l.31-.27c3.83-.13,6.77-.18,10.51-.18,2.4,0,6,.63,8,2.23,4.09,3.29,4.85,8,4.85,13.18S462.78,35.53,458.64,38.82Zm-8-23.91c-1.69,0-3.07,0-4.86,0v21.5c1.79,0,3.17,0,4.86,0,5.83,0,6.68-5.84,6.68-10.73S456.5,14.91,450.67,14.91Z"/>
        <path class="edb2025d-e6f0-4d2b-9839-00dd9dc7a1cd" d="M473.28,33.92l-2.09,6.95a11.49,11.49,0,0,1-2.58.22,9.3,9.3,0,0,1-2.85-.4l-.22-.31,9.93-30a30.49,30.49,0,0,1,3.47-.22,22,22,0,0,1,3.43.27l9.75,30a7.63,7.63,0,0,1-3.43.76c-1.91,0-2.85-.67-3.56-3.2l-1.25-4.06c-.66,0-1.73,0-2.18,0h-6.23C475,34,474,34,473.28,33.92Zm1.48-4.72c.62,0,1.55,0,2,0h3.83c.4,0,1.24,0,1.87,0l-1.34-4.54c-.75-2.54-1.74-6-2.4-8.64h-.27c-.45,2.27-1.38,5.48-2,7.53Z"/>
        <path class="edb2025d-e6f0-4d2b-9839-00dd9dc7a1cd" d="M237.43,0a5.59,5.59,0,0,1,2.39,3.18l-7.37,4.38a3.28,3.28,0,0,1-1.65-2Z"/>
      </g>
      <g>
        <path class="edb2025d-e6f0-4d2b-9839-00dd9dc7a1cd" d="M206.11,129.86l3.39,0c1.53,0,2.3.72,2.3,2.16v5.7a19.31,19.31,0,0,1-5.87.88,6.83,6.83,0,0,1-2.76-.52,5.24,5.24,0,0,1-2-1.49,6.51,6.51,0,0,1-1.22-2.39,11.38,11.38,0,0,1-.41-3.22,9.45,9.45,0,0,1,.57-3.43,7,7,0,0,1,1.54-2.43,6.18,6.18,0,0,1,2.22-1.46,7,7,0,0,1,2.61-.49,9.68,9.68,0,0,1,5.28,1.56,2,2,0,0,1-.16.7,5,5,0,0,1-.34.7,3.51,3.51,0,0,1-.48.6,3.93,3.93,0,0,1-.55.47,6.61,6.61,0,0,0-3.64-1.17q-3.53,0-3.53,4.93t3.62,4.92c.33,0,.65,0,1-.05a9.26,9.26,0,0,0,.92-.13v-1.45c0-.33,0-.62,0-.86s0-.46,0-.63h-1.08a1.81,1.81,0,0,1-1.29-.36,1.55,1.55,0,0,1-.35-1.11A4.64,4.64,0,0,1,206.11,129.86Z"/>
        <path class="edb2025d-e6f0-4d2b-9839-00dd9dc7a1cd" d="M223.42,137.22c-1.54-1.29-2.32-3.4-2.32-6.34a11.27,11.27,0,0,1,.45-3.35,6.75,6.75,0,0,1,1.27-2.41,5.31,5.31,0,0,1,2-1.47,6.92,6.92,0,0,1,2.68-.5,7,7,0,0,1,2.7.5,5.26,5.26,0,0,1,2,1.48,6.9,6.9,0,0,1,1.28,2.42,12.78,12.78,0,0,1,0,6.65,6.68,6.68,0,0,1-1.28,2.41,5.24,5.24,0,0,1-2,1.47,6.84,6.84,0,0,1-2.7.5A6.23,6.23,0,0,1,223.42,137.22Zm1.75-3a2.3,2.3,0,0,0,2.36,1.69,2.27,2.27,0,0,0,1.44-.44,3.06,3.06,0,0,0,.87-1.13,5.07,5.07,0,0,0,.42-1.52,13.63,13.63,0,0,0,.11-1.67c0-.51,0-1.07-.06-1.69a6.88,6.88,0,0,0-.31-1.74,3.23,3.23,0,0,0-.82-1.36,2.27,2.27,0,0,0-1.65-.56,2.23,2.23,0,0,0-1.59.53,3.28,3.28,0,0,0-.82,1.31,6.79,6.79,0,0,0-.34,1.66c0,.58-.06,1.1-.06,1.55a13.44,13.44,0,0,0,.1,1.77A8.86,8.86,0,0,0,225.17,134.23Z"/>
        <path class="edb2025d-e6f0-4d2b-9839-00dd9dc7a1cd" d="M248.83,135.36l2.83-11.88a7,7,0,0,1,3.12.1l.13.18-4,14.5c-.82.08-1.65.13-2.48.13a3.78,3.78,0,0,1-1.79-.32,2,2,0,0,1-.83-1.24l-3.6-13.05a5.22,5.22,0,0,1,1.93-.5,1.92,1.92,0,0,1,1.34.41,2.78,2.78,0,0,1,.67,1.3l1.67,6.17c.26,1,.53,2.28.82,3.94C248.62,135.27,248.7,135.36,248.83,135.36Z"/>
        <path class="edb2025d-e6f0-4d2b-9839-00dd9dc7a1cd" d="M267.57,133.89l0,1.55v0c.66,0,1.19-.05,1.59-.05h5a7.87,7.87,0,0,1-.07,1.24c-.17,1.11-.9,1.66-2.2,1.66h-5.76a2,2,0,0,1-1.46-.54,2,2,0,0,1-.53-1.47V123.63l.15-.15h9.33a7.22,7.22,0,0,1,.13,1.36,4.42,4.42,0,0,1-.3,1.54h-5.89l0,1.55v1.52c.37,0,.86,0,1.47,0h3.29a4.46,4.46,0,0,1,.2,1.38,4.94,4.94,0,0,1-.2,1.43h-4.76Z"/>
        <path class="edb2025d-e6f0-4d2b-9839-00dd9dc7a1cd" d="M294.58,128a4.08,4.08,0,0,1-.22,1.36,4.35,4.35,0,0,1-.57,1.14,4.18,4.18,0,0,1-.84.89,3.94,3.94,0,0,1-1,.57,3,3,0,0,1,1.67,2l.65,1.84a3.11,3.11,0,0,0,1.08,1.61,2.46,2.46,0,0,1-1,.72,3.36,3.36,0,0,1-1.43.29,1.65,1.65,0,0,1-1.21-.44,4.21,4.21,0,0,1-.8-1.55l-.78-2.27a2.37,2.37,0,0,0-.64-1,1.77,1.77,0,0,0-1.2-.34h-.88v5.41a10.39,10.39,0,0,1-1.74.13,9.71,9.71,0,0,1-1.7-.13V123.58l.15-.15,3.17-.06c.86,0,1.53,0,2,0a7.28,7.28,0,0,1,2.16.29,4.26,4.26,0,0,1,1.66.88A3.72,3.72,0,0,1,294.2,126,5.21,5.21,0,0,1,294.58,128Zm-7.16-2.12v4.27c.65,0,1.2,0,1.66,0a2.64,2.64,0,0,0,1.12-.26,1.52,1.52,0,0,0,.64-.64,2.72,2.72,0,0,0,.21-1.2,1.83,1.83,0,0,0-2-2.11h-.9C287.85,125.94,287.62,125.94,287.42,125.92Z"/>
        <path class="edb2025d-e6f0-4d2b-9839-00dd9dc7a1cd" d="M316.35,123.32l.15.16v14.71a9.33,9.33,0,0,1-2,.2,16,16,0,0,1-2.09-.13l-3.4-7.75c-.4-.88-.81-1.9-1.23-3l-.07,0c.18,2.11.26,4.26.26,6.47v4.31a9.23,9.23,0,0,1-1.62.13,8.82,8.82,0,0,1-1.6-.13V123.54a8.74,8.74,0,0,1,2-.19,14.33,14.33,0,0,1,2.07.13l3.35,7.72c.61,1.43,1.05,2.53,1.34,3.29l.09,0c-.18-2-.26-4.13-.26-6.39v-2.64a2.35,2.35,0,0,1,.45-1.61,2,2,0,0,1,1.47-.49Z"/>
        <path class="edb2025d-e6f0-4d2b-9839-00dd9dc7a1cd" d="M328.64,137.22q-2.31-1.93-2.31-6.34a11.63,11.63,0,0,1,.44-3.35,6.76,6.76,0,0,1,1.28-2.41,5.35,5.35,0,0,1,2-1.47,7.49,7.49,0,0,1,5.38,0,5.37,5.37,0,0,1,2,1.48,6.88,6.88,0,0,1,1.27,2.42,12.51,12.51,0,0,1,0,6.65,6.66,6.66,0,0,1-1.27,2.41,5.34,5.34,0,0,1-2,1.47,6.82,6.82,0,0,1-2.69.5A6.24,6.24,0,0,1,328.64,137.22Zm1.76-3a2.52,2.52,0,0,0,3.8,1.25,3.15,3.15,0,0,0,.86-1.13,5.07,5.07,0,0,0,.42-1.52,11.91,11.91,0,0,0,.11-1.67c0-.51,0-1.07,0-1.69a6.88,6.88,0,0,0-.32-1.74,3.13,3.13,0,0,0-.82-1.36,2.23,2.23,0,0,0-1.64-.56,2.19,2.19,0,0,0-1.59.53,3.3,3.3,0,0,0-.83,1.31,6.35,6.35,0,0,0-.33,1.66c-.05.58-.07,1.1-.07,1.55a15.41,15.41,0,0,0,.1,1.77A8.91,8.91,0,0,0,330.4,134.23Z"/>
        <path class="edb2025d-e6f0-4d2b-9839-00dd9dc7a1cd" d="M364.66,126.42l0,1.69v1.36h4.65a5.31,5.31,0,0,1,.18,1.42,5.36,5.36,0,0,1-.18,1.42h-4.65v5.95a11.44,11.44,0,0,1-3.44,0V123.61l.15-.13h9.26a5.71,5.71,0,0,1,.13,1.35,1.53,1.53,0,0,1-.44,1.2,2.11,2.11,0,0,1-1.4.39Z"/>
        <path class="edb2025d-e6f0-4d2b-9839-00dd9dc7a1cd" d="M383.66,133.89l0,1.55v0c.66,0,1.19-.05,1.59-.05h5a7.87,7.87,0,0,1-.07,1.24c-.17,1.11-.91,1.66-2.2,1.66h-5.76a2,2,0,0,1-1.46-.54,2,2,0,0,1-.53-1.47V123.63l.15-.15h9.33a7.22,7.22,0,0,1,.13,1.36,4.42,4.42,0,0,1-.3,1.54h-5.89l0,1.55v1.52c.37,0,.86,0,1.46,0h3.3a4.46,4.46,0,0,1,.2,1.38,4.94,4.94,0,0,1-.2,1.43h-4.76Z"/>
        <path class="edb2025d-e6f0-4d2b-9839-00dd9dc7a1cd" d="M409.63,137.3a4.45,4.45,0,0,1-1.82.83,11.27,11.27,0,0,1-2.49.26l-1.93,0-3.17-.07-.16-.15V123.58l.16-.15c.83,0,1.7-.05,2.6-.06s1.85,0,2.85,0a7.13,7.13,0,0,1,3.07.58,5,5,0,0,1,2,1.6,6.39,6.39,0,0,1,1,2.39,13.87,13.87,0,0,1,.3,3,12.56,12.56,0,0,1-.49,3.74A5.41,5.41,0,0,1,409.63,137.3Zm-4-1.62q2.85,0,2.85-4.8t-2.85-4.83h-1.23l-.91,0v9.67l.91,0Z"/>
        <path class="edb2025d-e6f0-4d2b-9839-00dd9dc7a1cd" d="M425.34,133.89l0,1.55v0c.66,0,1.19-.05,1.6-.05h5a9.66,9.66,0,0,1-.06,1.24c-.18,1.11-.91,1.66-2.21,1.66h-5.76a2,2,0,0,1-1.46-.54,2,2,0,0,1-.53-1.47V123.63l.15-.15h9.33a6.47,6.47,0,0,1,.13,1.36,4.42,4.42,0,0,1-.3,1.54h-5.89l0,1.55v1.52c.38,0,.86,0,1.47,0h3.29a4.46,4.46,0,0,1,.2,1.38,4.94,4.94,0,0,1-.2,1.43h-4.76Z"/>
        <path class="edb2025d-e6f0-4d2b-9839-00dd9dc7a1cd" d="M452.35,128a4.35,4.35,0,0,1-.21,1.36,4.7,4.7,0,0,1-.58,1.14,4.18,4.18,0,0,1-.84.89,3.94,3.94,0,0,1-1,.57,3,3,0,0,1,1.67,2l.65,1.84a3.11,3.11,0,0,0,1.08,1.61,2.49,2.49,0,0,1-1,.72,3.39,3.39,0,0,1-1.43.29,1.62,1.62,0,0,1-1.21-.44,4.2,4.2,0,0,1-.81-1.55l-.77-2.27a2.47,2.47,0,0,0-.64-1,1.81,1.81,0,0,0-1.2-.34h-.89v5.41a10.26,10.26,0,0,1-1.73.13,9.75,9.75,0,0,1-1.71-.13V123.58l.15-.15,3.17-.06c.86,0,1.53,0,2,0a7.35,7.35,0,0,1,2.17.29,4.22,4.22,0,0,1,1.65.88A3.72,3.72,0,0,1,452,126,5,5,0,0,1,452.35,128Zm-7.16-2.12v4.27c.65,0,1.2,0,1.66,0a2.6,2.6,0,0,0,1.12-.26,1.52,1.52,0,0,0,.64-.64,2.72,2.72,0,0,0,.21-1.2c0-1.4-.67-2.11-2-2.11h-.9C445.62,125.94,445.39,125.94,445.19,125.92Z"/>
        <path class="edb2025d-e6f0-4d2b-9839-00dd9dc7a1cd" d="M466.07,135.16c-.39,0-.68,0-.86,0l-.93,3.14a6.12,6.12,0,0,1-1.45.13,4.93,4.93,0,0,1-1.69-.24L461,138l4.76-14.52a12.66,12.66,0,0,1,2-.13,11,11,0,0,1,2,.15L474.47,138a3.43,3.43,0,0,1-1.71.41,2.45,2.45,0,0,1-1.58-.39,3.23,3.23,0,0,1-.78-1.49l-.41-1.43c-.19,0-.47,0-.84,0Zm-.06-2.72.86,0h2l.4,0-.37-1.35c-.34-1.21-.74-2.69-1.19-4.45h-.13c-.11.62-.46,2-1,4.13Z"/>
        <path class="edb2025d-e6f0-4d2b-9839-00dd9dc7a1cd" d="M489.17,135.34h3.76a9,9,0,0,1-.11,1.48,1.68,1.68,0,0,1-.69,1.06,2.51,2.51,0,0,1-1.54.44H485.7a1.86,1.86,0,0,1-2-2V123.48l.15-.16h1.27c1.35,0,2,.74,2,2.21v9.89C487.77,135.37,488.45,135.34,489.17,135.34Z"/>
      </g>
    </g>
  </g>
  <rect class="f31c6d99-4ed6-4d58-8823-ffaa1b7faa4d" y="10.22" width="181.13" height="128.2"/>
  <polygon class="a6124395-4783-4063-8396-c27d28b88c7a" points="0 10.2 0 79.9 72.08 21.75 181.13 69.84 181.13 10.2 0 10.2"/>
  <path class="be244f71-b781-4cf6-851b-c93647b11ad5" d="M0,79.9v49.43a173.85,173.85,0,0,1,16.52-12.19A66.94,66.94,0,0,1,122.81,74.36a277.88,277.88,0,0,1,58.32-4.52l-109-48.1Z"/>
  <path class="edb2025d-e6f0-4d2b-9839-00dd9dc7a1cd" d="M82.59,60.93a66.94,66.94,0,0,0-66.07,56.21A290,290,0,0,1,122.81,74.36,66.66,66.66,0,0,0,82.59,60.93Z"/>
  <path class="f31c6d99-4ed6-4d58-8823-ffaa1b7faa4d" d="M122.81,74.36A290,290,0,0,0,16.52,117.14,173.85,173.85,0,0,0,0,129.33v9.11A128.39,128.39,0,0,1,15.66,127.9c21-12.39,62.89-31.73,123.84-35.27a349,349,0,0,1,41.63.12V69.84A277.88,277.88,0,0,0,122.81,74.36Z"/>
  <path class="a6124395-4783-4063-8396-c27d28b88c7a" d="M139.5,92.63C78.55,96.17,36.68,115.51,15.66,127.9A128.39,128.39,0,0,0,0,138.44H181.13V92.75A349,349,0,0,0,139.5,92.63Z"/>
</svg>
