<svg xmlns="http://www.w3.org/2000/svg" width="184" height="33" fill-rule="evenodd" stroke-linejoin="round" stroke-miterlimit="2" clip-rule="evenodd">
  <path fill="#fff" fill-rule="nonzero" d="M43.45 6.6h-3.64c-.1 0-.14.06-.16.15v20.54c0 .09.05.14.16.14h3.64c.1 0 .16-.05.16-.14V6.75c0-.08-.05-.13-.16-.14zm49.07 7.6a4 4 0 0 1 4.06-4.03h5.76c.1 0 .15-.05.15-.16V6.77c0-.1-.05-.15-.15-.16h-5.76c-5.13.35-6.76 3.75-7.51 6.55-.06.05-.07 1.95-.07 3.92.04 1.52-.1 2.98.15 4.11.86 4 4 6.23 7.43 6.23h5.76c.1 0 .16-.05.16-.15v-3.25c0-.09-.06-.14-.16-.16h-5.72a3.94 3.94 0 0 1-4.1-3.97v-5.7zM47.65 6.6h9.34c3.05 0 6.96 3.05 6.96 6.95v13.72c0 .1-.05.16-.16.16h-3.64c-.1 0-.16-.06-.16-.16v-12.5a4.6 4.6 0 0 0-4.71-4.68h-3.91v17.18c0 .1-.06.16-.16.16h-3.56c-.11 0-.16-.06-.16-.16V6.77c.01-.1.06-.16.16-.16zm-40.39 0H.18c-.06 0-.1.05-.11.12v3.34c0 .07.04.11.11.11h6.04v17.14c0 .08.04.12.11.12h3.74c.07 0 .1-.04.1-.12V9.13c0-.65-.12-1.2-.38-1.62-.37-.6-1.2-.9-2.53-.9z"/>
  <path fill="#fff" fill-rule="nonzero" d="M16.22 6.6H5.36v.12c.3 0 .58.1.8.26a1.36 1.36 0 0 1 .56 1.05l.01.3-.01 1.84h9.5c.07 0 .11-.04.11-.11V6.72c0-.06-.04-.1-.11-.11zm110.8 0h9.34c3.05 0 6.96 3.05 6.96 6.95v13.72c0 .1-.06.16-.16.16h-3.64c-.1 0-.16-.06-.16-.16v-12.5a4.6 4.6 0 0 0-4.71-4.68h-3.92v17.18c0 .1-.05.16-.16.16h-3.56c-.1 0-.16-.06-.16-.16V6.77c.02-.1.07-.16.16-.16zm-3.98 5.4c0-.39-.08-1.05-.24-1.99-.7-2.26-2.23-3.4-4.6-3.4h-9.97c-.09 0-.14.05-.15.16V10c0 .1.05.16.15.16h9.4c1.8 0 2.05 2.75 0 2.96a73.6 73.6 0 0 1-4.55.52c-3.9.23-6.56 3-6.82 6.5v.22c0 1.07.2 2.12.63 3.17.99 2.26 3.15 3.89 6.49 3.89h9.5c.1 0 .16-.06.16-.16V12.25h-.01V12zm-9.85 11.86c-4.55 0-4.37-6.7 0-6.7 4.38 0 5-.43 5.89-.57v7.28h-5.89zM36.24 12c0-.38-.08-1.04-.24-1.98-.7-2.26-2.23-3.4-4.6-3.4h-9.97c-.09 0-.14.05-.15.16V10c0 .1.05.16.15.16h9.4c1.8 0 2.05 2.75 0 2.96-1.73.23-3.43.45-4.55.52-3.9.23-6.56 3-6.82 6.5v.22c0 1.07.2 2.12.63 3.17.99 2.26 3.15 3.89 6.49 3.89h9.5c.1 0 .16-.06.16-.16V12.25h-.01V12zm-9.85 11.87c-4.55 0-4.37-6.7 0-6.7 4.38 0 5-.43 5.89-.57v7.28h-5.89zM84.94 12c0-.38-.08-1.04-.24-1.98-.7-2.26-2.23-3.4-4.6-3.4h-9.96c-.1 0-.15.05-.16.16V10c0 .1.05.16.16.16h9.4c1.79 0 2.04 2.75 0 2.96a73.6 73.6 0 0 1-4.56.52c-3.9.23-6.56 3-6.82 6.5v.22c0 1.07.21 2.12.63 3.17 1 2.26 3.15 3.89 6.5 3.89h9.49c.1 0 .16-.06.16-.16V12.25h-.01V12zM75.1 23.86c-4.56 0-4.37-6.7 0-6.7s5-.43 5.88-.57v7.28H75.1zM177.6 17.37c4.5-5.06 4.95-9.55 1.84-12.67-3.11-3.13-7.74-2.65-12.7 1.78C163.66.92 159.6-1 155.69.8c-5.27 2.22-5.82 9.6 1.6 20.32a23.8 23.8 0 0 0-1.03 6.64c1.16 0 3.56-.1 6.65-1 12.1 8.22 18.38 6.04 20.25 1.67 1.83-3.89-.23-8.2-5.55-11.06zm-9.65-3.56a30.53 30.53 0 0 0-4.96-.6 35.41 35.41 0 0 1 3.27-3.92s1.27 3.1 1.7 4.52zM156.3 2.18c3.1-1.45 6.48.43 9.18 5.52a35.86 35.86 0 0 0-4.47 5.5c-1.67.04-3.77.47-5.82.81-2.87-6.07-2.2-10.28 1.11-11.83zm-.38 13.31c1.31-.28 2.96-.59 4.08-.67a30.04 30.04 0 0 0-2 4.17c-.7-1.05-2.07-3.5-2.08-3.5zM158 26.1c.04-.69.15-1.9.54-3.47.41.5 2.4 2.48 2.9 2.92-1.55.38-2.75.5-3.44.55zm10.48 2.02c-.2.02-2.62-1.34-3.46-2.06 1.3-.5 4.12-1.94 4.12-1.94s-.39 2.72-.66 4zm.74-5.95a27.76 27.76 0 0 1-5.74 2.77c-.6-.46-1.17-.93-1.69-1.4a28.97 28.97 0 0 1-2.64-2.97c.58-1.71 1.47-3.68 2.8-5.8 1.83-.14 6.47.74 6.48.83.13.02.88 4.7.8 6.57zm-1.69-14.13c4.34-4.01 8.23-4.68 10.69-2.24 2.46 2.46 1.8 6.37-2.24 10.74-.02.02-.02.03 0 0-.02 0-2.35-1.22-6.2-2.28a36.67 36.67 0 0 0-2.25-6.22zm7.2 9.77a35.42 35.42 0 0 1-3.93 3.3 30.56 30.56 0 0 0-.59-5.02c1.43.43 2.94 1 4.52 1.72.04-.03.03-.02 0 0zm7 9.92c-1.56 3.32-5.81 3.91-11.75 1.13.36-1.75.76-4.08.82-5.73v-.01a35.85 35.85 0 0 0 5.58-4.49c-.08-.05-.06-.04 0 0 4.97 2.7 6.78 6.04 5.35 9.1z"/>
</svg>