<svg xmlns="http://www.w3.org/2000/svg" fill-rule="evenodd" stroke-linejoin="round" stroke-miterlimit="2" clip-rule="evenodd" viewBox="0 0 161 45" width="161" height="45">
  <path fill="#fff" d="M107.23 44.55c-.5-.41-.75-1.1-.75-2.05 0-.41.04-.78.14-1.09.1-.3.24-.57.42-.78.18-.21.4-.37.65-.48.26-.1.55-.16.87-.16.33 0 .62.05.88.16s.48.27.66.48c.18.22.32.48.41.79.1.31.15.67.15 1.08 0 .4-.05.76-.15 1.08-.1.3-.23.57-.41.78-.18.2-.4.37-.66.48-.26.1-.55.16-.88.16-.53 0-.97-.15-1.33-.45zm-34.14 0c-.5-.41-.76-1.1-.76-2.05 0-.41.05-.78.15-1.09.1-.3.23-.57.41-.78.18-.21.4-.37.66-.48.26-.1.55-.16.87-.16.32 0 .61.05.87.16s.48.27.66.48c.18.22.32.48.42.79.1.31.14.67.14 1.08 0 .4-.04.76-.14 1.08-.1.3-.24.57-.42.78-.18.2-.4.37-.66.48-.26.1-.55.16-.87.16-.53 0-.98-.15-1.33-.45zm-5.62-2.38l1.1-.01c.5 0 .75.23.75.7v1.85c-.6.2-1.24.29-1.9.29-.35 0-.64-.06-.9-.17a1.73 1.73 0 0 1-.66-.48c-.17-.22-.3-.48-.4-.78a3.7 3.7 0 0 1 .06-2.16c.12-.31.29-.58.5-.79.2-.2.45-.37.72-.47.27-.1.55-.16.85-.16.6 0 1.18.17 1.71.5 0 .08-.02.16-.05.23a1.39 1.39 0 0 1-.27.43l-.18.15a2.15 2.15 0 0 0-1.18-.38c-.76 0-1.14.53-1.14 1.6 0 1.06.39 1.6 1.17 1.6a3.52 3.52 0 0 0 .61-.06v-.47a7.67 7.67 0 0 1 .02-.49h-.36c-.2 0-.34-.04-.41-.11-.08-.08-.12-.2-.12-.37 0-.14.03-.29.08-.45zm85.35 1.72h-1.28l-.3 1c-.11.04-.27.05-.47.05-.23 0-.4-.02-.55-.08l-.04-.05 1.55-4.71a4.26 4.26 0 0 1 1.3 0l1.52 4.72c-.17.1-.35.14-.56.14-.24 0-.41-.05-.51-.13-.1-.08-.18-.25-.25-.48l-.14-.47h-.27zm-58.97-.75v1.75c-.15.03-.34.04-.56.04a3 3 0 0 1-.56-.04v-4.76l.05-.05 1.03-.02h.66c.26 0 .5.02.7.09a1.3 1.3 0 0 1 .88.76 1.7 1.7 0 0 1 .05 1.1 1.46 1.46 0 0 1-.46.67c-.1.08-.2.14-.32.18.24.1.42.3.54.65l.21.6c.08.23.2.4.35.51a.77.77 0 0 1-.32.24c-.14.06-.29.1-.46.1a.52.52 0 0 1-.4-.15c-.08-.1-.17-.26-.25-.5l-.25-.74a.77.77 0 0 0-.21-.32c-.09-.08-.22-.11-.4-.11h-.28zm51.2 0v1.75a3.14 3.14 0 0 1-1.12 0v-4.76l.05-.05 1.03-.02h.65c.26 0 .5.02.7.09a1.3 1.3 0 0 1 .88.76 1.69 1.69 0 0 1 .06 1.1 1.43 1.43 0 0 1-.46.67c-.1.08-.22.14-.33.18.24.1.43.3.54.65l.21.6c.08.23.2.4.35.51a.78.78 0 0 1-.31.24c-.14.06-.3.1-.47.1a.53.53 0 0 1-.39-.15c-.1-.1-.18-.26-.26-.5l-.25-.74a.75.75 0 0 0-.2-.32c-.1-.08-.22-.11-.4-.11h-.29zM.53 44.95l.05-.04-.05.04zm58.82 0H.6v-.05a43.5 43.5 0 0 1 5.04-3.37c6.83-4.02 20.44-10.3 40.24-11.44 4.22-.25 8.72-.26 13.5.03v14.82zm43.88-4.9l.05.05v4.77a4.85 4.85 0 0 1-1.34.02l-1.1-2.51c-.14-.29-.27-.62-.4-1l-.03.01c.06.69.09 1.39.09 2.1v1.4a2.82 2.82 0 0 1-1.05 0v-4.77a4.79 4.79 0 0 1 1.31-.02l1.1 2.5.43 1.07.03-.01c-.06-.65-.09-1.35-.09-2.08v-.85c0-.25.05-.42.15-.53.1-.1.26-.15.48-.15h.37zm30.27 4.53c-.15.13-.35.21-.6.27-.24.06-.5.08-.8.08h-.63l-1.03-.02-.05-.05v-4.73l.05-.05a43.04 43.04 0 0 1 1.77-.03c.4 0 .73.07 1 .2.27.12.48.3.64.51.16.22.27.48.34.78a4.43 4.43 0 0 1-.07 2.17c-.1.34-.31.64-.62.87zm-14.59-1.62v1.93a3.1 3.1 0 0 1-.56.04c-.22 0-.4-.01-.55-.04v-4.75l.04-.04h3c.04.11.05.26.05.44 0 .17-.05.3-.14.39-.1.08-.25.12-.46.12h-1.39l.01.55v.44h1.51a1.8 1.8 0 0 1 0 .92h-1.5zm-37.59 1l.92-3.86c.11-.03.26-.05.44-.05.24 0 .43.03.57.08l.04.06-1.31 4.7a7.7 7.7 0 0 1-.8.04c-.27 0-.47-.03-.59-.1-.12-.06-.2-.2-.27-.4l-1.16-4.24c.25-.1.46-.16.62-.16.2 0 .34.05.44.14.1.09.16.23.22.42l.54 2c.08.31.17.74.26 1.28.01.05.04.08.08.08zm58.67.95h-1.86a.63.63 0 0 1-.48-.17.65.65 0 0 1-.17-.48v-4.11l.05-.05h3.02c.03.13.05.28.05.44 0 .16-.04.32-.1.5h-1.91v1l.48-.01h1.07c.04.13.06.28.06.45 0 .17-.02.32-.06.46h-1.54v.53l-.01.5V44l.52-.02h1.62c0 .18 0 .3-.02.4-.06.36-.3.54-.72.54zm-51.2 0h-1.86a.63.63 0 0 1-.47-.17.65.65 0 0 1-.17-.48v-4.11l.04-.05h3.03c.03.13.04.28.04.44 0 .16-.03.32-.1.5h-1.9v1l.48-.01h1.07c.04.13.06.28.06.45 0 .17-.02.32-.06.46H87.4v1.05l.51-.02h1.63l-.02.4c-.06.36-.3.54-.72.54zm37.68 0h-1.87a.63.63 0 0 1-.47-.17.65.65 0 0 1-.18-.48v-4.11l.05-.05h3.03c.03.13.04.28.04.44 0 .16-.03.32-.1.5h-1.9v1l.48-.01h1.07c.04.13.06.28.06.45 0 .17-.02.32-.06.46h-1.55v1.05l.51-.02h1.62c0 .18 0 .3-.02.4-.05.36-.3.54-.71.54zm33.3 0h-1.59a.64.64 0 0 1-.48-.17.65.65 0 0 1-.17-.48V40.1l.05-.05h.4c.45 0 .66.24.66.71v3.21c.21-.02.43-.03.67-.03h1.22c0 .2-.02.35-.04.49a.55.55 0 0 1-.22.34.8.8 0 0 1-.5.14zM107.8 43.6c.12.36.38.54.76.54.2 0 .35-.04.47-.14a1 1 0 0 0 .28-.36c.07-.15.11-.32.14-.5a4.33 4.33 0 0 0 .02-1.09 2.3 2.3 0 0 0-.1-.56 1.06 1.06 0 0 0-.27-.45c-.12-.12-.3-.18-.54-.18-.22 0-.4.06-.51.18-.12.11-.21.25-.27.42-.06.17-.1.35-.1.54a6.88 6.88 0 0 0 0 1.08c.02.17.06.34.12.52zm-34.14 0c.12.36.38.54.76.54.2 0 .35-.04.47-.14a1 1 0 0 0 .28-.36c.07-.15.11-.32.14-.5a4.33 4.33 0 0 0 .01-1.09 2.3 2.3 0 0 0-.1-.56 1.07 1.07 0 0 0-.27-.45c-.12-.12-.3-.18-.53-.18-.22 0-.4.06-.52.18-.12.11-.2.25-.26.42-.06.17-.1.35-.11.54a6.88 6.88 0 0 0 0 1.08c.03.17.07.34.13.52zm58.56.47c.61 0 .92-.52.92-1.56 0-1.05-.3-1.57-.92-1.57h-.7v3.13h.7zm20.12-2.94h-.04c-.04.2-.15.65-.34 1.34l-.16.54h.79a2.56 2.56 0 0 1 .26 0l-.12-.43-.39-1.45zm-58.49-.23v1.38h.54c.15-.01.27-.04.36-.1a.5.5 0 0 0 .21-.2.86.86 0 0 0 .07-.39c0-.46-.22-.68-.66-.68h-.3l-.22-.01zm51.2 0v1.38h.54c.15-.01.27-.04.36-.1a.5.5 0 0 0 .2-.2.85.85 0 0 0 .07-.39c0-.46-.22-.68-.66-.68h-.29a3 3 0 0 1-.23-.01zm-85.69-18.2L57 22.66h-.19c-5.82 0-11.3.56-16.37 1.5A21.72 21.72 0 0 0 5.96 38l-.05.03a58.21 58.21 0 0 0-5.32 3.9V42 25.95L23.98 7.1l35.38 15.6zM7.02 37.32A20.82 20.82 0 0 1 39.2 24.4 94.48 94.48 0 0 0 7.02 37.32zm113.75-5.29a13.3 13.3 0 0 0 6.4 1.95c2.6 0 4.06-1.12 4.1-2.7 0-1.34-1.06-2.37-2.91-3.09l-3.77-1.46c-2.67-1.03-4.36-2.52-4.36-4.96 0-3.13 2.93-5.56 7.2-5.56 2.65 0 5.1.74 6.77 1.49-.03.86-.54 1.8-1.25 2.38a14.81 14.81 0 0 0-5.45-1.35c-2.36 0-3.83 1.18-3.83 2.7 0 1.26 1.08 1.97 2.65 2.58l3.7 1.43c2.74 1.03 4.78 2.78 4.78 5.33 0 3.3-2.55 5.77-7.81 5.77-2.65 0-5.52-.8-7.66-2.16a3.7 3.7 0 0 1 1.44-2.35zM85.8 28.28v7.88c-.51.09-1.15.12-1.69.12-.51 0-1.18-.03-1.66-.12v-19.4l.2-.2c2.39-.04 4.68-.1 6.85-.1 4.43 0 7.24 2.07 7.24 5.88a5.36 5.36 0 0 1-4.08 5.22c1.05.35 1.82 1.32 2.26 2.44l1.4 3.35c.33.78.7 1.55 1.44 2.07-.44.6-1.43.94-2.3.94-1.27 0-1.72-.63-2.23-1.86l-1.6-3.87c-.53-1.32-1.24-2.35-3.21-2.35H85.8zm24.85 3.15h-4.37l-1.85-.03-1.7 4.79a7.67 7.67 0 0 1-3.12-.08l-.1-.15 7.21-19.38c.51-.09 1.4-.11 1.95-.11.54 0 1.43.02 1.91.11l7.15 19.38c-.48.29-1.25.4-1.98.4-1.05 0-1.6-.34-2-1.6l-1.19-3.36-1.91.03zM71.9 16.47c4.69 0 6.95 1.95 6.95 5.18 0 1.81-1.21 3.39-3 4.02a5.36 5.36 0 0 1 4.06 5.02c0 3.18-2.3 5.59-7.6 5.59-2.58 0-4.65-.06-7.05-.09l-.19-.2V16.75l.2-.2c2.32-.03 4.52-.08 6.63-.08zm66.86.11a10.9 10.9 0 0 1 1.69-.11c.5 0 1.18.02 1.69.11v19.58c-.51.09-1.18.12-1.7.12-.5 0-1.2-.03-1.68-.12V16.58zm19.2 19.61h-8.32c-1.15 0-1.98-.66-1.98-1.9V16.65l.23-.17h1.27c1.4 0 1.92.6 1.92 1.95v15.22c.98-.09 1.97-.12 2.83-.12h6.35c0 .32-.03.84-.1 1.2-.18.98-.98 1.47-2.2 1.47zM72.1 27.04h-3.67v6.94c1.34 0 2.68-.03 3.86-.03 3.45 0 4.15-1.97 4.15-3.44 0-1.43-.93-3.47-4.34-3.47zm36.45-7.45h-.16c-.32 1.29-.9 3.1-1.24 4.16l-1.85 5.19 1.63-.03h3.19l1.6.03-1.48-4.16a130.3 130.3 0 0 1-1.69-5.19zm-22.74 6.25c1.24-.03 2.65-.06 3.54-.06 3.13 0 3.9-1.77 3.9-3.44 0-1.75-.77-3.47-3.9-3.47-.92 0-2.45 0-3.54-.03v7zm-26.45-4.15l-35-15.44a.92.92 0 0 0-.96.12L.6 24.77V3.36h58.76v18.34zm9.07 3h3.35c3 0 3.67-1.6 3.67-2.95 0-1.4-.6-2.95-3.6-2.95-.9 0-2.4 0-3.42-.03v5.93zm37-13.64h-2.02l-.71-.01-.68 2.25a3.82 3.82 0 0 1-1.76-.06l-.07-.1 3.22-9.72a7.17 7.17 0 0 1 2.24.01l3.16 9.73c-.27.16-.74.24-1.11.24-.62 0-.93-.21-1.16-1.04l-.4-1.31-.7.01zm12.2 0h-2.01l-.71-.01-.68 2.25a3.83 3.83 0 0 1-1.76-.06l-.08-.1 3.23-9.72a9.47 9.47 0 0 1 2.24.01l3.16 9.73c-.27.16-.74.24-1.11.24-.62 0-.93-.21-1.16-1.04l-.4-1.31-.71.01zm39.26 0h-2.02l-.7-.01-.69 2.25a3.82 3.82 0 0 1-1.76-.06l-.07-.1 3.22-9.72a7.18 7.18 0 0 1 2.24.01l3.16 9.73c-.27.16-.73.24-1.11.24-.62 0-.92-.21-1.16-1.04l-.4-1.31-.7.01zm-18.36 0h-2.02l-.71-.01-.68 2.25a3.82 3.82 0 0 1-1.76-.06l-.07-.1 3.22-9.72a7.18 7.18 0 0 1 2.24.01l3.16 9.73c-.27.16-.74.24-1.11.24-.62 0-.93-.21-1.16-1.04l-.4-1.31-.71.01zm-61.72 0H74.8l-.7-.01-.69 2.25a3.82 3.82 0 0 1-1.76-.06l-.07-.1 3.22-9.72a7.2 7.2 0 0 1 2.24.01l3.16 9.73c-.27.16-.73.24-1.11.24-.62 0-.92-.21-1.16-1.04l-.4-1.31-.7.01zm13.1-1.56v3.79a5.67 5.67 0 0 1-1.93 0v-9.8l.1-.08c1.16-.03 2.25-.06 3.3-.06 2 0 3.39 1 3.39 3.05 0 1.37-.87 2.3-1.8 2.64.51.19.86.68 1.06 1.27l.54 1.46c.14.4.36.8.68 1.06-.25.34-.78.57-1.29.57-.7 0-.95-.39-1.23-1.14l-.6-1.72c-.22-.57-.51-1.04-1.35-1.04h-.88zm-8.58-4.46h-1.6a4.18 4.18 0 0 1 0-1.62h6.9c.06.2.1.5.1.75 0 .64-.32.87-1.03.87h-.68L84.15 5h-.01l.01 1.07v7.2a5.82 5.82 0 0 1-1.95 0v-7.2l.02-1.07h-.02l-.87.02zm43.04.49c-.01.9-.06 2.24-.11 3.13l-.28 4.64a5.5 5.5 0 0 1-1.83-.04l.76-9.83a8.72 8.72 0 0 1 2.53 0l1.11 4c.1.41.47 1.9.55 2.48h.1c.09-.58.45-2.07.55-2.47l1.1-4a7.96 7.96 0 0 1 2.54 0l.77 9.82a5.32 5.32 0 0 1-1.84.04l-.27-4.64c-.06-.9-.12-2.22-.12-3.13h-.1l-1.69 6.28a7.96 7.96 0 0 1-1.98 0l-1.69-6.28h-.1zM67.02 10v3.28a5.67 5.67 0 0 1-1.94 0v-9.8l.1-.08c1.16-.03 2.13-.06 3.17-.06 1.99 0 3.42 1.08 3.42 3.34 0 2.18-1.43 3.32-3.42 3.32h-1.33zM96.8 3.4a5.76 5.76 0 0 1 1.93 0v9.88a5.65 5.65 0 0 1-1.93 0V3.4zm52.6 9.23c-.64.52-1.8.72-2.59.72-1.21 0-2.15-.03-3.4-.06l-.1-.08V3.48l.1-.08c1.24-.05 2.19-.06 3.4-.06.78 0 1.95.2 2.59.72 1.33 1.07 1.57 2.6 1.57 4.28 0 1.69-.23 3.22-1.57 4.29zm-2.59-7.76l-1.57-.01v6.97l1.57-.01c1.9 0 2.17-1.9 2.17-3.48 0-1.6-.28-3.47-2.17-3.47zm-42.36.36h-.08c-.15.74-.45 1.78-.64 2.44l-.56 1.84.65-.02h1.24l.6.02-.43-1.48c-.24-.82-.56-1.93-.78-2.8zm51.46 0h-.08c-.15.74-.45 1.78-.64 2.44l-.56 1.84.65-.02h1.24l.6.02-.43-1.48a71.5 71.5 0 0 1-.78-2.8zm-18.36 0h-.09c-.14.74-.44 1.78-.63 2.44l-.56 1.84.65-.02h1.24l.6.02-.43-1.48a71.5 71.5 0 0 1-.78-2.8zm-20.89 0h-.09c-.14.74-.44 1.78-.63 2.44l-.56 1.84.65-.02h1.24l.6.02-.43-1.48c-.24-.82-.56-1.93-.78-2.8zm-40.83 0h-.08c-.15.74-.45 1.78-.64 2.44l-.56 1.84.65-.02h1.24l.6.02-.43-1.48a71.5 71.5 0 0 1-.78-2.8zm-8.82 3.3l1.21-.03c1.29 0 1.54-1.06 1.54-1.82 0-.78-.25-1.83-1.54-1.83l-1.21-.01v3.69zm22.88-.54c.5-.03 1.05-.04 1.33-.04 1.26 0 1.54-.77 1.54-1.56 0-.81-.28-1.56-1.54-1.56-.35 0-.88 0-1.33-.02V8zM77.63.03c.29.15.68.6.78 1.03L76 2.5c-.24-.1-.46-.41-.53-.65l2.15-1.8z"/>
</svg>