<svg xmlns="http://www.w3.org/2000/svg" width="200" height="38" fill-rule="evenodd" stroke-linejoin="round" stroke-miterlimit="2" clip-rule="evenodd" viewBox="0 0 200 38">
    <path fill="#fff" d="M126.31 15.14l4.75 2.68.03 5.45-4.7 2.76-4.73-2.69-.04-5.44 4.7-2.76zm-5.16 22.64l5.62-3.3-.06-6.5-5.66-3.22-5.61 3.3.04 6.51 5.67 3.21zm-10.3-11.38l3.66 2.07.03 4.22-3.64 2.14-3.65-2.1-.03-4.2 3.63-2.13zm-8.89-11.23l5.63 3.2.04 6.45-5.57 3.27-5.61-3.19-.06-6.46 5.57-3.27zm5.69-8.67l4.55 2.58.04 5.23-4.5 2.65-4.56-2.59-.04-5.22 4.5-2.65zm13.84 10.4l7.3-4.28-.06-8.44L121.38 0l-7.3 4.28.06 8.46 7.35 4.16z"/>
    <path fill="#fff" fill-rule="nonzero" d="M141.14 6.51v14.07c0 4.24 1.63 6.4 4.43 6.4 2.9 0 4.5-2.05 4.5-6.4V6.51h5.52v13.73c0 7.56-3.8 11.16-10.2 11.16-6.19 0-9.78-3.45-9.78-11.23V6.51h5.53zm19.29 0h14.92v4.55h-9.4v5.59h8.8v4.5h-8.8V31h-5.54V6.51h.02zM200 29.88c-1.7.57-4.95 1.38-8.17 1.38-4.48 0-7.7-1.14-9.95-3.27a12.3 12.3 0 0 1-3.47-8.96c.04-8.13 5.97-12.79 14-12.79 3.16 0 5.59.64 6.8 1.18l-1.17 4.46a12.8 12.8 0 0 0-5.69-1.05c-4.6 0-8.13 2.62-8.13 7.92 0 5.09 3.2 8.03 7.75 8.03 1.23 0 2.24-.14 2.68-.33V21.3h-3.78v-4.32H200v12.9zM18.65 30.38c-1.04.5-3.34 1.08-6.28 1.08C4.67 31.46 0 26.64 0 19.23c0-7.96 5.57-12.8 12.98-12.8 2.9 0 4.94.64 5.85 1.09l-.93 3.52a11.9 11.9 0 0 0-4.75-.92c-4.92 0-8.47 3.09-8.47 8.91 0 5.35 3.08 8.73 8.44 8.73 1.76 0 3.62-.37 4.8-.85l.73 3.47zM30.43 6.84v24.22h-4.4V6.84h4.4zm13.52 17.35l-2.09 6.87h-4.55l7.75-24.22h5.63l7.87 24.22H53.8l-2.2-6.87h-7.65.01zm6.94-3.34l-1.9-5.97c-.48-1.46-.86-3.12-1.23-4.52h-.07c-.35 1.41-.75 3.1-1.15 4.54l-1.86 5.97h6.2v-.02zM65.54 7.21c2.21-.38 4.45-.56 6.68-.54 3.49 0 5.83.57 7.48 1.93a6.14 6.14 0 0 1 2.1 4.89 6.4 6.4 0 0 1-4.42 6.04v.1c1.75.65 2.8 2.35 3.37 4.68.78 3.01 1.42 5.83 1.9 6.75h-4.53c-.35-.71-.96-2.7-1.62-5.71-.7-3.16-1.82-4.17-4.35-4.24h-2.21v9.95h-4.41V7.2h.01zm4.4 10.66h2.61c2.99 0 4.83-1.57 4.83-3.98 0-2.63-1.84-3.88-4.72-3.88-1.4 0-2.3.11-2.72.21v7.66-.01z"/>
</svg>