<svg xmlns="http://www.w3.org/2000/svg" fill-rule="evenodd" stroke-linejoin="round" stroke-miterlimit="2" clip-rule="evenodd" viewBox="0 0 251 70" width="251" height="70">
  <path fill="#333" fill-rule="nonzero" d="M204.6 66.7h11a88 88 0 0 1-.9-13.2V40h7.5c6.9 0 10 3.4 11.8 12a70.9 70.9 0 0 0 4.3 14.6h12.4c-1.4-2.4-3-9.9-5-18-1.6-6.4-4.2-11.3-9-13v-.4c6.6-2.2 11.8-7.4 11.8-16 0-5.5-2.2-10-5.8-13.1-4.4-3.7-11-5.3-20.5-5.3-2 0-3.9 0-6.3.2v9.5a36 36 0 0 1 7.5-.6c7.8 0 12.9 3.6 12.9 10.9 0 6.5-5 10.2-13.2 10.2h-9c.1-12.4-8.6-19-20.5-19-8.7 0-15.8 2.3-19.9 4.7l2.1 7.8a36.3 36.3 0 0 1 15.3-4.3c9.1 0 11.2 6.8 11.2 9.6v1.3c-19 0-32.4 7-32.4 21a17 17 0 0 0 17.5 17c7.1 0 12.8-3.8 15.9-9l1.3 6.5zm-61.5-1.1a41 41 0 0 1-16.7 2.9c-20.7 0-33.2-13-33.2-32.7 0-21.4 14.8-34.3 34.7-34.3 7.8 0 13.4 1.6 15.8 2.8l-2.6 9.5c-3-1.4-7.3-2.5-12.7-2.5-13.2 0-22.8 8.3-22.8 23.9 0 14.3 8.4 23.4 22.7 23.4 4.8 0 9.8-1 12.9-2.4l2 9.4zm20.3 2.6h-11.7v-47h11.7v47zm-78.3-2.5H83V62a10.1 10.1 0 0 1-8.6 4.2c-4.1 0-8.6-2.3-8.6-7s4-7.3 9.8-7.3c3 0 5.2.4 7.4 1v-1c0-4.5-2.8-6.8-7.4-6.8-2.7 0-5 .7-7 1.8l-.8-2a18 18 0 0 1 8-1.9c3 0 5.4.9 7 2.5a8.5 8.5 0 0 1 2.3 6.3v14zM43 54.7v-.1c0-6.3 5-11.7 11.4-11.7 4.2 0 6.8 1.9 8.9 4l-1.5 1.7c-2-2-4.2-3.7-7.5-3.7-5 0-9 4.2-9 9.6 0 5.4 4 9.7 9.2 9.7a10 10 0 0 0 7.5-3.7l1.5 1.3c-2.3 2.6-5 4.4-9.1 4.4C47.9 66.2 43 61 43 54.6zm40 2.7v-2.6c-1.9-.5-4.4-1-7.6-1-4.7 0-7.3 2.1-7.3 5.2v.1c0 3.2 3 5.1 6.5 5.1 4.5 0 8.4-2.8 8.4-6.8zm119.3-10c0 .9-.3 2.4-.5 3.5-.8 4.9-6.3 8.6-11.9 8.6-4.4 0-7.6-2.4-7.6-7.8 0-8.3 11.7-11.6 20-11.6v7.3zM2 42.9H0V13.6h2.1v5c2-3 4.8-5.6 9.2-5.6a11 11 0 0 1 10.9 11.6v.1c0 7.3-5.5 11.7-10.9 11.7C7 36.4 4 33.9 2.1 31v11.8zm42.5-7h-2.1v-4.2a8.7 8.7 0 0 1-8 4.7c-5.7 0-9-3.9-9-9.2V13.6h2.2v13.2c0 4.6 2.5 7.6 7 7.6 4.4 0 7.8-3.3 7.8-8V13.7h2.1v22.3zm6.6 0H49v-32h2.2v14.6c1.9-2.9 4.7-5.5 9.2-5.5a11 11 0 0 1 10.8 11.6v.1c0 7.3-5.5 11.7-10.8 11.7-4.5 0-7.4-2.5-9.2-5.3v4.8zm26.1-32v32h-2.1v-32h2.1zm6.9 32H82V13.6h2.2v22.3zM19.9 24.8c0-6-4.1-9.7-8.8-9.7a9.3 9.3 0 0 0-9 9.6c0 5.8 4.4 9.6 9 9.6 4.9 0 8.8-3.5 8.8-9.5zm49 0c0-6-4-9.7-8.8-9.7a9.3 9.3 0 0 0-9 9.6c0 5.8 4.4 9.6 9 9.6 4.9 0 8.8-3.5 8.8-9.5zM164 8.2c0 3.5-2.6 6.3-6.6 6.3a6.2 6.2 0 0 1-6.5-6.3c0-3.7 2.7-6.5 6.6-6.5 4 0 6.4 2.8 6.5 6.5zM84.4 6.9h-2.7v-3h2.7v3z"/>
</svg>