<svg xmlns="http://www.w3.org/2000/svg" viewBox="0 0 265.183 179.853">
	<path fill="#323232" d="M84.082 173.651c-4.709 2.438-15.098 4.875-28.246 4.875C21.102 178.526 0 156.771 0 123.501c0-36.046 24.998-57.788 58.436-57.788 13.148 0 22.564 2.76 26.619 4.865l-4.383 15.908c-5.195-2.271-12.338-4.219-21.424-4.219-22.242 0-38.307 13.955-38.307 40.253 0 24.027 14.117 39.449 38.143 39.449 8.115 0 16.555-1.625 21.748-4.062l3.25 15.744zM119.37 76.992c0 6.006-4.311 10.715-11.174 10.715-6.547 0-10.854-4.709-10.854-10.715 0-6.166 4.471-10.873 11.014-10.873 6.704 0 10.856 4.707 11.014 10.873zM98.458 178.12V99.066h19.793v79.054H98.458zM187.595 177.001h18.617c-.951-6-.213-15.311-.213-23.68v-22.51l11.933-.021c11.523 0 16.3 6.485 19.427 20.972 3.129 13.83 5.27 22.239 6.918 25.239h20.906c-2.309-4-4.257-17.331-7.718-31.161C254.67 135.145 251 126.196 243 123.233v-.492c11-3.787 19.077-12.5 19.077-26.819 0-9.383-3.964-17.121-10.052-22.223-7.408-6.254-17.97-8.889-33.937-8.889-3.525 0-6.089.09-10.089.252v16.01c2-.484 5.542-.957 11.813-.957 13.17 0 21.45 6.113 21.45 18.297 0 11.026-8.637 17.19-22.299 17.19l-15.191.125c.057-21.001-14.657-32.226-34.657-32.226-14.65 0-26.683 3.939-33.534 8.129l3.579 13.046c5.25-3.625 19.462-7.214 26.362-7.214 15.354 0 19.477 11.351 19.477 16.089v2.324c-32 0-55.23 11.846-55.23 35.248 0 14.082 10.533 28.729 29.178 28.729 11.986 0 21.324-5.739 26.59-14.388-.047.768 2.058 11.537 2.058 11.537zM185 143.044c0 1.525-1.134 4.096-1.427 5.855-1.367 8.244-11.052 14.578-20.376 14.578-7.422 0-12.351-3.994-12.351-13.125 0-14.084 20.153-19.486 34.153-19.486v12.178z"/>
	<path fill="#323232" d="M5.292 14.67h3.267v7.6c2.933-4.467 7.267-8.4 14-8.4 8.204 0 16.536 6.602 16.536 17.67v.131c0 11.068-8.332 17.801-16.536 17.801-6.798 0-11.199-3.863-14-8.131v18.002H5.292V14.67zm30.27 17.133v-.133c0-8.934-6.201-14.668-13.335-14.668-7.068 0-13.868 5.936-13.868 14.602v.135c0 8.734 6.8 14.602 13.868 14.602 7.4-.001 13.335-5.402 13.335-14.538zM44.157 35.471V14.67h3.267v20.199c0 7.002 3.933 11.602 10.8 11.602 6.667 0 11.802-5.066 11.802-12.135V14.67h3.268v34.004h-3.268v-6.336c-2.267 4.002-6.067 7.133-12.268 7.133-8.601 0-13.601-5.866-13.601-14zM83.245 41.34v7.334h-3.271V0h3.271v22.27c2.932-4.467 7.266-8.4 14-8.4 8.2 0 16.534 6.602 16.534 17.67v.131c0 11.068-8.334 17.801-16.534 17.801-6.802-.001-11.2-3.865-14-8.132zm27.001-9.537v-.133c0-8.934-6.201-14.668-13.334-14.668-7.067 0-13.869 5.936-13.869 14.602v.135c0 8.734 6.802 14.602 13.869 14.602 7.4-.001 13.334-5.402 13.334-14.538zM119.872 0h3.268v48.674h-3.268V0zM129.845 0h4.067v4.467h-4.067V0zm.398 14.67h3.27v34.004h-3.27V14.67zM140.128 31.803v-.133c0-9.531 7.602-17.801 17.338-17.801 6.398 0 10.398 2.936 13.6 6.27l-2.334 2.398c-2.936-3-6.27-5.602-11.336-5.602-7.734 0-13.732 6.469-13.732 14.604v.131c0 8.201 6.199 14.736 14 14.736 4.799 0 8.535-2.467 11.402-5.67l2.266 2.002c-3.467 3.936-7.6 6.732-13.865 6.732-9.803.001-17.339-8.13-17.339-17.667zM174.925 38.803v-.133c0-7.066 6.07-11.066 14.871-11.066 4.732 0 7.998.6 11.266 1.465v-1.465c0-6.869-4.199-10.4-11.199-10.4-4.133 0-7.535 1.135-10.67 2.732l-1.199-2.865c3.734-1.732 7.402-2.934 12.068-2.934 4.6 0 8.27 1.266 10.734 3.734 2.266 2.268 3.467 5.4 3.467 9.6v21.203h-3.201v-5.67c-2.334 3.27-6.533 6.467-13.002 6.467-6.332 0-13.135-3.6-13.135-10.668zm26.205-2.865V32.07c-2.867-.732-6.668-1.535-11.535-1.535-7.199 0-11.203 3.201-11.203 7.938v.131c0 4.936 4.67 7.803 9.869 7.803 6.936-.001 12.869-4.268 12.869-10.469z"/>
</svg>